<svg width="312" height="396" viewBox="0 0 312 396" fill="none" xmlns="http://www.w3.org/2000/svg">
<path d="M98.6315 205.151C114.415 205.151 112.486 190.883 112.486 190.883H131.602C131.602 202.855 126.473 218.941 100.736 216.631C89.1465 215.591 84.1116 207.594 84.307 198.879C84.3447 197.198 85.8052 195.967 87.4871 195.967C88.4357 195.967 89.2378 196.689 89.481 197.606C90.1815 200.247 92.3306 205.151 98.6315 205.151Z" fill="url(#paint0_linear)"/>
<path d="M102.642 138.194C102.047 111.28 124.279 90.3601 151.199 90.3601C175.928 90.3601 197.148 108.067 203.786 131.888C210.208 154.935 219.961 184.399 233.596 211.771C246.634 237.944 231.251 280.294 202.237 283.925L178.935 286.841C169.453 288.028 159.826 286.727 151 283.066L143.696 280.037C137.704 277.552 132.223 273.832 128.734 268.363C108.706 236.97 103.553 179.372 102.642 138.194Z" fill="url(#paint1_linear)"/>
<g opacity="0.5" filter="url(#filter0_f)">
<ellipse cx="196.835" cy="308.472" rx="33.4684" ry="2.43407" fill="url(#paint2_linear)"/>
</g>
<path d="M148.755 216.167C164.539 216.167 162.61 201.899 162.61 201.899H181.726C181.726 213.871 176.597 229.957 150.86 227.647C139.27 226.607 134.235 218.61 134.431 209.895C134.469 208.214 135.929 206.983 137.611 206.983C138.56 206.983 139.362 207.705 139.605 208.622C140.305 211.263 142.455 216.167 148.755 216.167Z" fill="url(#paint3_linear)"/>
<g filter="url(#filter1_d)">
<g filter="url(#filter2_ii)">
<path d="M109.13 139.036C108.428 127.866 113.24 117.061 122.012 110.11C133.391 101.094 148.821 99.1073 162.112 104.946L163.336 105.484C178.039 111.943 186.71 127.337 184.612 143.259L181.485 166.989C179.154 184.681 164.072 197.906 146.227 197.906C127.453 197.906 111.912 183.311 110.735 164.574L109.13 139.036Z" fill="url(#paint4_linear)"/>
</g>
<g opacity="0.12" filter="url(#filter3_f)">
<path d="M111.199 169.541C110.798 163.869 114.84 158.848 120.467 158.029L132.909 156.216C135.574 155.828 138.28 155.828 140.945 156.216L153.336 158.021C158.986 158.844 163.036 163.896 162.611 169.59C161.924 178.802 154.249 185.926 145.011 185.926H128.784C119.53 185.926 111.852 178.771 111.199 169.541Z" fill="url(#paint5_linear)"/>
</g>
<g filter="url(#filter4_dd)">
<rect x="131.419" y="169.952" width="5.5081" height="13.7703" rx="2.75405" fill="url(#paint6_linear)"/>
</g>
</g>
<g filter="url(#filter5_dd)">
<ellipse cx="120.678" cy="144.753" rx="8.53756" ry="8.39986" fill="url(#paint7_linear)"/>
</g>
<ellipse cx="120.678" cy="157.146" rx="3.85567" ry="2.06554" fill="url(#paint8_linear)"/>
<path d="M118.737 123.37C119.291 120.821 121.548 119.002 124.157 119.002C124.517 119.002 124.809 119.295 124.809 119.655V130.891C124.809 132.995 123.104 134.701 120.999 134.701C118.569 134.701 116.76 132.456 117.277 130.081L118.737 123.37Z" fill="url(#paint9_linear)"/>
<path d="M118.404 173.902C118.862 176.706 121.285 178.765 124.127 178.765C124.504 178.765 124.809 178.46 124.809 178.083V164.786C124.809 162.62 123.053 160.864 120.887 160.864C118.468 160.864 116.626 163.032 117.016 165.419L118.404 173.902Z" fill="url(#paint10_linear)"/>
<g filter="url(#filter6_dd)">
<circle r="9.20757" transform="matrix(-1 -8.74228e-08 -8.74228e-08 1 153.959 144.94)" fill="url(#paint11_linear)"/>
</g>
<ellipse rx="4.20918" ry="2.23613" transform="matrix(-1 -8.74228e-08 -8.74228e-08 1 153.959 158.488)" fill="url(#paint12_linear)"/>
<path d="M156.027 121.768C155.435 119.017 153.003 117.054 150.19 117.054C149.802 117.054 149.487 117.368 149.487 117.756L149.487 130.04C149.487 132.312 151.329 134.154 153.601 134.154C156.221 134.154 158.174 131.736 157.622 129.174L156.027 121.768Z" fill="url(#paint13_linear)"/>
<path d="M156.389 176.523C155.898 179.547 153.286 181.77 150.222 181.77C149.816 181.77 149.487 181.441 149.487 181.035L149.487 166.535C149.487 164.198 151.382 162.302 153.72 162.302C156.328 162.302 158.316 164.638 157.898 167.213L156.389 176.523Z" fill="url(#paint14_linear)"/>
<defs>
<filter id="filter0_f" x="78.3615" y="221.033" width="236.947" height="174.878" filterUnits="userSpaceOnUse" color-interpolation-filters="sRGB">
<feFlood flood-opacity="0" result="BackgroundImageFix"/>
<feBlend mode="normal" in="SourceGraphic" in2="BackgroundImageFix" result="shape"/>
<feGaussianBlur stdDeviation="42.5025" result="effect1_foregroundBlur"/>
</filter>
<filter id="filter1_d" x="0.676445" y="-28.0019" width="292.632" height="313.042" filterUnits="userSpaceOnUse" color-interpolation-filters="sRGB">
<feFlood flood-opacity="0" result="BackgroundImageFix"/>
<feColorMatrix in="SourceAlpha" type="matrix" values="0 0 0 0 0 0 0 0 0 0 0 0 0 0 0 0 0 0 127 0" result="hardAlpha"/>
<feOffset dy="-21.2522"/>
<feGaussianBlur stdDeviation="54.193"/>
<feColorMatrix type="matrix" values="0 0 0 0 1 0 0 0 0 0.820833 0 0 0 0 0.992833 0 0 0 0.35 0"/>
<feBlend mode="normal" in2="BackgroundImageFix" result="effect1_dropShadow"/>
<feBlend mode="normal" in="SourceGraphic" in2="effect1_dropShadow" result="shape"/>
</filter>
<filter id="filter2_ii" x="62.3077" y="92.0728" width="122.615" height="120.71" filterUnits="userSpaceOnUse" color-interpolation-filters="sRGB">
<feFlood flood-opacity="0" result="BackgroundImageFix"/>
<feBlend mode="normal" in="SourceGraphic" in2="BackgroundImageFix" result="shape"/>
<feColorMatrix in="SourceAlpha" type="matrix" values="0 0 0 0 0 0 0 0 0 0 0 0 0 0 0 0 0 0 127 0" result="hardAlpha"/>
<feOffset dy="-9.56348"/>
<feGaussianBlur stdDeviation="9.56348"/>
<feComposite in2="hardAlpha" operator="arithmetic" k2="-1" k3="1"/>
<feColorMatrix type="matrix" values="0 0 0 0 0.379167 0 0 0 0 0.102691 0 0 0 0 0.351519 0 0 0 0.31 0"/>
<feBlend mode="normal" in2="shape" result="effect1_innerShadow"/>
<feColorMatrix in="SourceAlpha" type="matrix" values="0 0 0 0 0 0 0 0 0 0 0 0 0 0 0 0 0 0 127 0" result="hardAlpha"/>
<feOffset dx="-46.7548" dy="14.8765"/>
<feGaussianBlur stdDeviation="42.5043"/>
<feComposite in2="hardAlpha" operator="arithmetic" k2="-1" k3="1"/>
<feColorMatrix type="matrix" values="0 0 0 0 0.291279 0 0 0 0 0.061684 0 0 0 0 0.779167 0 0 0 0.28 0"/>
<feBlend mode="normal" in2="effect1_innerShadow" result="effect2_innerShadow"/>
</filter>
<filter id="filter3_f" x="29.4026" y="74.1558" width="215.009" height="193.539" filterUnits="userSpaceOnUse" color-interpolation-filters="sRGB">
<feFlood flood-opacity="0" result="BackgroundImageFix"/>
<feBlend mode="normal" in="SourceGraphic" in2="BackgroundImageFix" result="shape"/>
<feGaussianBlur stdDeviation="40.8848" result="effect1_foregroundBlur"/>
</filter>
<filter id="filter4_dd" x="119.73" y="161.064" width="28.8855" height="40.7234" filterUnits="userSpaceOnUse" color-interpolation-filters="sRGB">
<feFlood flood-opacity="0" result="BackgroundImageFix"/>
<feColorMatrix in="SourceAlpha" type="matrix" values="0 0 0 0 0 0 0 0 0 0 0 0 0 0 0 0 0 0 127 0" result="hardAlpha"/>
<feOffset dy="6.37565"/>
<feGaussianBlur stdDeviation="5.84435"/>
<feColorMatrix type="matrix" values="0 0 0 0 0.599108 0 0 0 0 0.279792 0 0 0 0 0.85 0 0 0 0.35 0"/>
<feBlend mode="normal" in2="BackgroundImageFix" result="effect1_dropShadow"/>
<feColorMatrix in="SourceAlpha" type="matrix" values="0 0 0 0 0 0 0 0 0 0 0 0 0 0 0 0 0 0 127 0" result="hardAlpha"/>
<feOffset dx="-2.12522" dy="-1.06261"/>
<feGaussianBlur stdDeviation="3.91311"/>
<feColorMatrix type="matrix" values="0 0 0 0 1 0 0 0 0 1 0 0 0 0 1 0 0 0 0.2 0"/>
<feBlend mode="normal" in2="effect1_dropShadow" result="effect2_dropShadow"/>
<feBlend mode="normal" in="SourceGraphic" in2="effect2_dropShadow" result="shape"/>
</filter>
<filter id="filter5_dd" x="99.7222" y="130.072" width="34.7112" height="37.2906" filterUnits="userSpaceOnUse" color-interpolation-filters="sRGB">
<feFlood flood-opacity="0" result="BackgroundImageFix"/>
<feColorMatrix in="SourceAlpha" type="matrix" values="0 0 0 0 0 0 0 0 0 0 0 0 0 0 0 0 0 0 127 0" result="hardAlpha"/>
<feOffset dx="-5.31304" dy="7.1052"/>
<feGaussianBlur stdDeviation="3.5526"/>
<feColorMatrix type="matrix" values="0 0 0 0 0.603458 0 0 0 0 0.390104 0 0 0 0 0.875 0 0 0 0.32 0"/>
<feBlend mode="normal" in2="BackgroundImageFix" result="effect1_dropShadow"/>
<feColorMatrix in="SourceAlpha" type="matrix" values="0 0 0 0 0 0 0 0 0 0 0 0 0 0 0 0 0 0 127 0" result="hardAlpha"/>
<feOffset dx="3.18783" dy="-4.25043"/>
<feGaussianBlur stdDeviation="1.01503"/>
<feColorMatrix type="matrix" values="0 0 0 0 1 0 0 0 0 1 0 0 0 0 1 0 0 0 0.4 0"/>
<feBlend mode="normal" in2="effect1_dropShadow" result="effect2_dropShadow"/>
<feBlend mode="normal" in="SourceGraphic" in2="effect2_dropShadow" result="shape"/>
</filter>
<filter id="filter6_dd" x="133.396" y="131.672" width="33.9261" height="37.0187" filterUnits="userSpaceOnUse" color-interpolation-filters="sRGB">
<feFlood flood-opacity="0" result="BackgroundImageFix"/>
<feColorMatrix in="SourceAlpha" type="matrix" values="0 0 0 0 0 0 0 0 0 0 0 0 0 0 0 0 0 0 127 0" result="hardAlpha"/>
<feOffset dx="-4.25043" dy="7.43826"/>
<feGaussianBlur stdDeviation="3.5526"/>
<feColorMatrix type="matrix" values="0 0 0 0 0.603458 0 0 0 0 0.390104 0 0 0 0 0.875 0 0 0 0.32 0"/>
<feBlend mode="normal" in2="BackgroundImageFix" result="effect1_dropShadow"/>
<feColorMatrix in="SourceAlpha" type="matrix" values="0 0 0 0 0 0 0 0 0 0 0 0 0 0 0 0 0 0 127 0" result="hardAlpha"/>
<feOffset dx="2.12522" dy="-2.03006"/>
<feGaussianBlur stdDeviation="1.01503"/>
<feColorMatrix type="matrix" values="0 0 0 0 1 0 0 0 0 1 0 0 0 0 1 0 0 0 0.4 0"/>
<feBlend mode="normal" in2="effect1_dropShadow" result="effect2_dropShadow"/>
<feBlend mode="normal" in="SourceGraphic" in2="effect2_dropShadow" result="shape"/>
</filter>
<linearGradient id="paint0_linear" x1="97.303" y1="200.385" x2="111.585" y2="200.385" gradientUnits="userSpaceOnUse">
<stop stop-color="#0D0038" stop-opacity="0.37"/>
<stop offset="1" stop-opacity="0"/>
</linearGradient>
<linearGradient id="paint1_linear" x1="162.678" y1="104.957" x2="158.571" y2="317.105" gradientUnits="userSpaceOnUse">
<stop stop-color="#0D0038"/>
<stop offset="1" stop-opacity="0.03"/>
</linearGradient>
<linearGradient id="paint2_linear" x1="196.835" y1="306.038" x2="196.835" y2="310.906" gradientUnits="userSpaceOnUse">
<stop/>
<stop offset="1" stop-color="#151433" stop-opacity="0.87"/>
<stop offset="1" stop-color="#251F27" stop-opacity="0.87"/>
</linearGradient>
<linearGradient id="paint3_linear" x1="138.813" y1="214.773" x2="166.984" y2="201.778" gradientUnits="userSpaceOnUse">
<stop stop-color="#0D0038" stop-opacity="0.37"/>
<stop offset="0.626611" stop-color="#050015" stop-opacity="0.08"/>
<stop offset="1" stop-opacity="0"/>
</linearGradient>
<linearGradient id="paint4_linear" x1="148.081" y1="95.4552" x2="148.081" y2="197.906" gradientUnits="userSpaceOnUse">
<stop stop-color="white"/>
<stop offset="0.0698237" stop-color="#F4F0F4" stop-opacity="0.990923"/>
<stop offset="0.942282" stop-color="#C7C5FE" stop-opacity="0.77"/>
<stop offset="1" stop-color="#C4C2FF" stop-opacity="0.81"/>
</linearGradient>
<linearGradient id="paint5_linear" x1="136.927" y1="155.631" x2="136.927" y2="185.926" gradientUnits="userSpaceOnUse">
<stop stop-color="#5B225C"/>
<stop offset="1" stop-color="#151433" stop-opacity="0.87"/>
<stop offset="1" stop-color="#59266B" stop-opacity="0.87"/>
</linearGradient>
<linearGradient id="paint6_linear" x1="134.173" y1="170.94" x2="134.186" y2="184.943" gradientUnits="userSpaceOnUse">
<stop stop-color="#261953"/>
<stop offset="1" stop-color="#11082F"/>
</linearGradient>
<linearGradient id="paint7_linear" x1="120.678" y1="137.558" x2="120.685" y2="154.642" gradientUnits="userSpaceOnUse">
<stop stop-color="#2E1E65"/>
<stop offset="1" stop-color="#11082F"/>
</linearGradient>
<linearGradient id="paint8_linear" x1="127.305" y1="155.081" x2="113.747" y2="160.214" gradientUnits="userSpaceOnUse">
<stop stop-color="#FE4A23" stop-opacity="0.35"/>
<stop offset="1" stop-color="#FA43B0" stop-opacity="0"/>
</linearGradient>
<linearGradient id="paint9_linear" x1="120.54" y1="119.002" x2="120.427" y2="137.67" gradientUnits="userSpaceOnUse">
<stop stop-color="#FE4A23" stop-opacity="0.42"/>
<stop offset="1" stop-color="#FA43B0" stop-opacity="0.38"/>
</linearGradient>
<linearGradient id="paint10_linear" x1="120.54" y1="178.765" x2="120.393" y2="157.478" gradientUnits="userSpaceOnUse">
<stop stop-color="#FE4A23" stop-opacity="0.17"/>
<stop offset="1" stop-color="#FA43B0" stop-opacity="0.48"/>
</linearGradient>
<linearGradient id="paint11_linear" x1="9.20757" y1="1.32071" x2="9.21484" y2="20.0474" gradientUnits="userSpaceOnUse">
<stop stop-color="#2E1E65"/>
<stop offset="1" stop-color="#11082F"/>
</linearGradient>
<linearGradient id="paint12_linear" x1="11.4437" y1="-3.99094e-07" x2="-3.32606" y2="5.63894" gradientUnits="userSpaceOnUse">
<stop stop-color="#FE4A23" stop-opacity="0.35"/>
<stop offset="1" stop-color="#FA43B0" stop-opacity="0"/>
</linearGradient>
<linearGradient id="paint13_linear" x1="154.091" y1="117.054" x2="154.215" y2="137.388" gradientUnits="userSpaceOnUse">
<stop stop-color="#FE4A23" stop-opacity="0.42"/>
<stop offset="1" stop-color="#FA43B0" stop-opacity="0.38"/>
</linearGradient>
<linearGradient id="paint14_linear" x1="154.091" y1="181.77" x2="154.252" y2="158.62" gradientUnits="userSpaceOnUse">
<stop stop-color="#FE4A23" stop-opacity="0.17"/>
<stop offset="1" stop-color="#FA43B0" stop-opacity="0.48"/>
</linearGradient>
</defs>
</svg>
